<?xml version="1.0" standalone="no"?>
<!DOCTYPE svg PUBLIC "-//W3C//DTD SVG 20010904//EN"
 "http://www.w3.org/TR/2001/REC-SVG-20010904/DTD/svg10.dtd">
<svg version="1.0" xmlns="http://www.w3.org/2000/svg"
 width="804.000000pt" height="450.000000pt" viewBox="0 0 804.000000 450.000000"
 preserveAspectRatio="xMidYMid meet">
<metadata>
Created by potrace 1.10, written by Peter Selinger 2001-2011
</metadata>
<g transform="translate(0.000000,450.000000) scale(0.100000,-0.100000)"
fill="#000000" stroke="none">
<path d="M5993 3931 c-24 -9 -48 -22 -55 -29 -7 -7 -17 -12 -24 -12 -28 0 -94
-93 -114 -160 -20 -66 -20 -96 -20 -1505 0 -1309 1 -1444 17 -1499 31 -114 94
-179 204 -210 47 -14 139 -16 641 -16 557 0 589 1 650 20 79 24 149 82 178
147 20 45 20 64 20 1553 0 1497 0 1508 -20 1554 -27 61 -75 106 -155 144 l-65
32 -607 -1 c-545 -1 -612 -3 -650 -18z m875 -147 c24 -17 29 -43 10 -62 -9 -9
-76 -12 -240 -12 l-228 0 0 39 c0 22 5 42 13 44 6 3 104 6 217 6 171 1 209 -2
228 -15z m477 -233 c9 -15 6 -2494 -3 -2503 -4 -4 -323 -7 -708 -6 l-699 3 -3
1245 c-1 685 0 1251 3 1258 3 9 154 12 704 12 417 0 702 -4 706 -9z m-641
-2621 c24 -10 55 -35 69 -54 23 -29 27 -45 27 -101 0 -64 -1 -66 -45 -110 -43
-44 -46 -45 -107 -45 -84 0 -125 27 -160 103 -23 48 -23 69 2 115 29 54 41 67
85 90 50 27 75 27 129 2z"/>
<path d="M585 2048 c-3 -7 -4 -222 -3 -478 l3 -465 48 -3 47 -3 0 345 c0 221
4 347 10 351 19 12 45 -5 78 -50 17 -24 32 -47 32 -51 0 -3 14 -23 30 -44 17
-21 30 -42 30 -47 0 -5 13 -23 30 -39 16 -16 30 -36 30 -45 0 -9 13 -29 30
-45 16 -16 30 -36 30 -45 0 -9 13 -29 30 -45 16 -16 30 -36 30 -45 0 -9 13
-29 30 -45 16 -16 30 -36 30 -45 0 -9 13 -29 30 -45 16 -16 30 -36 30 -45 0
-8 10 -25 23 -37 19 -18 35 -22 90 -22 l67 0 -2 478 -3 477 -57 3 -58 3 -2
-357 c-3 -357 -6 -390 -37 -352 -5 7 -26 32 -45 54 -20 23 -36 45 -36 49 0 4
-13 24 -30 45 -16 21 -30 41 -30 45 0 4 -13 24 -30 45 -16 21 -30 41 -30 45 0
4 -13 24 -30 45 -16 21 -30 41 -30 45 0 4 -13 24 -30 45 -16 21 -30 41 -30 45
0 4 -13 24 -30 45 -16 21 -30 41 -30 45 0 4 -13 24 -30 45 -16 21 -30 41 -30
44 0 4 -10 20 -22 36 -19 27 -28 30 -75 30 -34 0 -55 -5 -58 -12z"/>
<path d="M1781 2024 c-12 -19 -21 -43 -21 -53 0 -10 -7 -24 -15 -31 -8 -7 -15
-25 -15 -40 0 -15 -7 -33 -15 -40 -8 -7 -15 -25 -15 -40 0 -15 -7 -33 -15 -40
-8 -7 -15 -26 -15 -42 0 -16 -6 -31 -15 -34 -8 -4 -15 -18 -15 -33 0 -15 -7
-36 -15 -47 -8 -10 -15 -29 -15 -40 0 -12 -7 -27 -15 -34 -8 -7 -15 -28 -15
-47 0 -21 -6 -36 -15 -39 -8 -4 -15 -18 -15 -34 0 -15 -7 -33 -15 -40 -8 -7
-15 -26 -15 -42 0 -16 -6 -31 -15 -34 -8 -4 -15 -18 -15 -33 0 -15 -7 -36 -15
-47 -8 -10 -15 -29 -15 -40 0 -12 -7 -27 -15 -34 -8 -7 -15 -23 -15 -36 0 -23
4 -24 58 -24 53 0 58 2 75 31 9 17 17 41 17 54 0 12 7 28 15 35 8 7 15 28 15
47 0 21 6 36 15 39 8 4 15 18 15 31 0 48 20 52 221 53 181 0 186 -1 207 -23
12 -13 22 -35 22 -49 0 -14 7 -31 15 -38 8 -7 15 -25 15 -40 0 -15 7 -33 15
-40 8 -7 15 -23 15 -36 0 -42 33 -64 95 -64 54 0 55 1 55 29 0 16 -6 31 -15
35 -9 3 -15 18 -15 34 0 16 -7 35 -15 42 -8 7 -15 25 -15 40 0 16 -7 30 -15
34 -8 3 -15 16 -15 28 0 13 -7 32 -15 42 -8 11 -15 30 -15 42 0 12 -7 27 -15
34 -8 7 -15 23 -15 35 0 12 -7 28 -15 35 -8 7 -15 25 -15 40 0 15 -7 33 -15
40 -8 7 -15 23 -15 35 0 13 -7 25 -15 29 -9 3 -15 18 -15 34 0 16 -7 35 -15
42 -8 7 -15 25 -15 40 0 16 -7 30 -15 34 -9 3 -15 18 -15 34 0 16 -7 35 -15
42 -8 7 -15 25 -15 40 0 16 -7 30 -15 34 -8 3 -15 16 -15 29 0 38 -30 57 -87
57 -48 0 -52 -2 -72 -36z m99 -159 c0 -13 6 -39 14 -57 8 -18 21 -51 29 -73
29 -77 45 -120 66 -173 12 -29 19 -57 16 -62 -9 -14 -292 -13 -300 1 -4 5 0
18 9 28 9 10 16 25 16 34 0 9 7 33 16 54 44 102 62 151 74 201 17 70 60 104
60 47z"/>
<path d="M2334 2046 c-3 -7 -4 -33 -2 -57 l3 -44 155 -5 155 -5 5 -415 5 -415
50 0 50 0 5 415 5 415 158 3 157 3 0 59 0 60 -370 0 c-307 0 -372 -2 -376 -14z"/>
<path d="M3225 2048 c-3 -7 -4 -222 -3 -478 l3 -465 50 0 50 0 0 475 0 475
-48 3 c-32 2 -49 -1 -52 -10z"/>
<path d="M3446 2052 c-3 -6 1 -15 9 -22 8 -7 15 -22 15 -34 0 -11 7 -30 15
-40 8 -11 15 -30 15 -42 0 -12 7 -27 15 -34 8 -7 15 -25 15 -40 0 -15 7 -33
15 -40 8 -7 15 -25 15 -40 0 -16 7 -30 15 -34 9 -3 15 -18 15 -34 0 -16 7 -35
15 -42 8 -7 15 -25 15 -40 0 -15 7 -33 15 -40 8 -7 15 -25 15 -40 0 -15 7 -33
15 -40 8 -7 15 -22 15 -34 0 -11 7 -30 15 -40 8 -11 15 -32 15 -47 0 -15 7
-29 15 -33 9 -3 15 -18 15 -34 0 -16 7 -35 15 -42 8 -7 15 -25 15 -40 0 -15 6
-30 14 -33 8 -3 16 -22 18 -44 l3 -38 73 -3 c57 -2 72 0 72 11 0 8 7 20 15 27
8 7 15 25 15 40 0 15 7 33 15 40 8 7 15 22 15 34 0 12 7 31 15 42 8 10 15 29
15 40 0 12 7 27 15 34 8 7 15 25 15 40 0 15 7 33 15 40 8 7 15 25 15 40 0 15
7 33 15 40 8 7 15 26 15 42 0 16 6 31 15 34 8 4 15 18 15 34 0 15 7 33 15 40
8 7 15 26 15 42 0 16 6 31 15 34 8 4 15 18 15 34 0 15 7 33 15 40 8 7 15 25
15 40 0 15 7 33 15 40 8 7 15 22 15 34 0 12 7 31 15 42 8 10 15 32 15 47 0 28
0 28 -57 25 -55 -3 -58 -5 -61 -30 -2 -14 -10 -32 -18 -38 -8 -7 -14 -25 -14
-40 0 -15 -7 -33 -15 -40 -8 -7 -15 -28 -15 -47 0 -21 -6 -36 -15 -39 -8 -4
-15 -18 -15 -34 0 -15 -7 -33 -15 -40 -8 -7 -15 -25 -15 -40 0 -15 -7 -33 -15
-40 -8 -7 -15 -28 -15 -47 0 -21 -6 -36 -15 -39 -8 -4 -15 -18 -15 -33 0 -15
-7 -36 -15 -47 -8 -10 -15 -29 -15 -40 0 -12 -7 -27 -15 -34 -8 -7 -15 -28
-15 -47 0 -21 -6 -36 -15 -39 -10 -4 -15 -20 -15 -45 0 -28 -5 -41 -20 -49
-26 -14 -40 -5 -40 24 0 13 -7 29 -15 36 -8 7 -15 25 -15 40 0 15 -7 33 -15
40 -8 7 -15 24 -15 39 0 14 -7 35 -15 45 -8 11 -15 32 -15 47 0 15 -7 29 -15
33 -10 3 -15 19 -15 45 0 25 -5 41 -15 45 -9 3 -15 18 -15 39 0 19 -7 40 -15
47 -8 7 -15 25 -15 40 0 15 -7 33 -15 40 -8 7 -15 24 -15 39 0 14 -7 35 -15
45 -8 11 -15 32 -15 47 0 15 -6 29 -14 32 -8 3 -16 22 -18 44 l-3 38 -67 3
c-36 2 -69 -1 -72 -6z"/>
<path d="M4430 1580 l0 -480 348 2 347 3 0 40 0 40 -285 5 -285 5 0 170 0 170
244 3 c165 1 249 6 258 14 9 7 13 26 11 47 l-3 36 -255 5 -255 5 0 145 0 145
280 5 280 5 0 55 0 55 -342 3 -343 2 0 -480z"/>
</g>
</svg>
